<svg xml:space="preserve" viewBox="0 0 100 100" y="0" x="0" xmlns="http://www.w3.org/2000/svg" id="圖層_1" version="1.1" preserveAspectRatio="xMidYMid" width="175" height="175" xmlns:xlink="http://www.w3.org/1999/xlink" style="margin-top:0px;margin-right:0px;margin-bottom:0px;margin-left:0px;display:block;shape-rendering:auto;background-position-x:0%;background-position-y:0%;background-size:auto;background-origin:padding-box;background-clip:border-box;background:scroll rgba(0, 0, 0, 0) none  repeat;width:175px;height:175px;;animation:none"><g class="ldl-scale" style="transform-origin:50px 50px;transform:matrix(0.71934, -0.694658, 0.694658, 0.71934, 0, 0);;animation:none"><g class="ldl-ani"><g class="ldl-layer"><g class="ldl-ani"><g><g class="ldl-layer"><g class="ldl-ani" style="transform:matrix(1, 0, 0, 1, 0, 0);transform-box:view-box;animation-duration:100s;animation-timing-function:linear;animation-delay:-100s;animation-iteration-count:infinite;animation-direction:normal;animation-fill-mode:forwards;animation-play-state:paused;animation-name:animate;animation-timeline:auto;animation-range-start:normal;animation-range-end:normal;transform-origin:50px 50px;;animation:none"><path fill="#666" d="M50.6 62.7l-11 9.7 13-48.5c1.4-5.1 8-16 12.3-14.9L50.6 62.7z" style="stroke-width:0.7px;fill:rgb(24, 24, 24);;animation:none"></path></g></g>
<g class="ldl-layer"><g class="ldl-ani"><g><g class="ldl-layer"><g class="ldl-ani" style="transform:matrix(1, 0, 0, 1, 0, 0);transform-box:view-box;animation-duration:100s;animation-timing-function:linear;animation-delay:-100s;animation-iteration-count:infinite;animation-direction:normal;animation-fill-mode:forwards;animation-play-state:paused;animation-name:animate;animation-timeline:auto;animation-range-start:normal;animation-range-end:normal;transform-origin:50px 50px;;animation:none"><path fill="#333" d="M47.7 91c-.8 0-1.7-.1-2.5-.3-6.6-1.8-10-10-7.6-18.8 1.1-4 3.2-7.4 5.9-9.8 3.1-2.6 6.7-3.6 10.1-2.7 3.3.9 6 3.6 7.4 7.4 1.2 3.4 1.3 7.5.2 11.4-1.1 4-3.2 7.4-5.9 9.8-2.3 2-5 3-7.6 3zm3.4-25c-1.3 0-2.5.8-3.1 1.4-1.7 1.4-3 3.7-3.7 6.3-1.5 5.3.3 9.7 2.7 10.3 1.6.4 3.1-.6 3.9-1.3 1.7-1.4 3-3.7 3.7-6.3.7-2.6.7-5.2-.1-7.3-.3-1-1.2-2.6-2.7-3-.2-.1-.5-.1-.7-.1z" style="stroke-width:0.7px;fill:rgb(24, 24, 24);;animation:none"></path></g></g></g></g></g></g></g></g>
<g class="ldl-layer"><g class="ldl-ani"><g><g class="ldl-layer"><g class="ldl-ani" style="transform:matrix(1, 0, 0, 1, 0, 0);transform-box:view-box;animation-duration:100s;animation-timing-function:linear;animation-delay:-100s;animation-iteration-count:infinite;animation-direction:normal;animation-fill-mode:forwards;animation-play-state:paused;animation-name:animate;animation-timeline:auto;animation-range-start:normal;animation-range-end:normal;transform-origin:50px 50px;;animation:none"><path fill="#666" d="M37.8 49.1l-9.7 11 48.5-13c5.1-1.4 16-8 14.9-12.3L37.8 49.1z" style="stroke-width:0.7px;fill:rgb(24, 24, 24);;animation:none"></path></g></g>
<g class="ldl-layer"><g class="ldl-ani"><g><g class="ldl-layer"><g class="ldl-ani" style="transform:matrix(1, 0, 0, 1, 0, 0);transform-box:view-box;animation-duration:100s;animation-timing-function:linear;animation-delay:-100s;animation-iteration-count:infinite;animation-direction:normal;animation-fill-mode:forwards;animation-play-state:paused;animation-name:animate;animation-timeline:auto;animation-range-start:normal;animation-range-end:normal;transform-origin:50px 50px;;animation:none"><path fill="#333" d="M22.1 61.9c-6.5 0-11.9-3.2-13.3-8.4-.9-3.3.1-7 2.7-10.1 2.3-2.8 5.8-4.9 9.8-5.9 8.8-2.3 17 1 18.8 7.6 1.8 6.6-3.7 13.7-12.5 16-1.9.6-3.7.8-5.5.8zm4.7-18.2c-1.2 0-2.4.2-3.7.5-2.6.7-4.9 2-6.3 3.7-.7.8-1.7 2.3-1.3 3.9.7 2.4 5.1 4.2 10.4 2.8 5.3-1.4 8.2-5.1 7.6-7.6-.6-1.9-3.2-3.3-6.7-3.3z" style="stroke-width:0.7px;fill:rgb(24, 24, 24);;animation:none"></path></g></g></g></g></g></g></g></g>
<metadata xmlns:d="https://loading.io/stock/"></metadata></g></g>
<STYLE type="text/css">@keyframes animate { 0.00% {animation-timing-function: cubic-bezier(0.33,0.00,0.67,0.00);transform: translate(0.00px,0.00px) rotate(0.00deg) scale(1.00, 1.00) skew(0deg, 0.00deg) ;opacity: 1.00;}50.00% {animation-timing-function: cubic-bezier(0.33,0.00,0.67,0.00);transform: translate(0.00px,0.00px) rotate(0.00deg) ;}100.00% {animation-timing-function: cubic-bezier(0.33,0.00,0.67,0.00);transform: translate(0.00px,0.00px) rotate(0.00deg) ;} }</STYLE><!-- [ldio] generated by https://loading.io --></svg>